<svg width="200" height="200" viewBox="0 0 200 200" fill="none" xmlns="http://www.w3.org/2000/svg">
  <!-- Main body - rounded blob -->
  <ellipse cx="100" cy="110" rx="50" ry="55" fill="#3B82F6"/>

  <!-- Left arm juggling -->
  <path d="M 60 95 Q 35 85 25 70" stroke="#3B82F6" stroke-width="12" stroke-linecap="round" fill="none"/>
  <circle cx="25" cy="70" r="8" fill="#3B82F6"/>

  <!-- Right arm juggling -->
  <path d="M 140 95 Q 165 85 175 70" stroke="#3B82F6" stroke-width="12" stroke-linecap="round" fill="none"/>
  <circle cx="175" cy="70" r="8" fill="#3B82F6"/>

  <!-- Middle arm juggling -->
  <path d="M 100 85 Q 100 50 100 30" stroke="#3B82F6" stroke-width="12" stroke-linecap="round" fill="none"/>
  <circle cx="100" cy="30" r="8" fill="#3B82F6"/>

  <!-- Bottom left arm -->
  <path d="M 70 130 Q 50 140 45 155" stroke="#3B82F6" stroke-width="12" stroke-linecap="round" fill="none"/>
  <circle cx="45" cy="155" r="8" fill="#3B82F6"/>

  <!-- Bottom right arm -->
  <path d="M 130 130 Q 150 140 155 155" stroke="#3B82F6" stroke-width="12" stroke-linecap="round" fill="none"/>
  <circle cx="155" cy="155" r="8" fill="#3B82F6"/>

  <!-- Juggled items (job applications) -->
  <!-- Application 1 - Green -->
  <circle cx="20" cy="55" r="12" fill="#10B981" opacity="0.9"/>
  <circle cx="20" cy="55" r="8" fill="#34D399" opacity="0.7"/>

  <!-- Application 2 - Purple -->
  <circle cx="100" cy="15" r="12" fill="#8B5CF6" opacity="0.9"/>
  <circle cx="100" cy="15" r="8" fill="#A78BFA" opacity="0.7"/>

  <!-- Application 3 - Orange -->
  <circle cx="180" cy="55" r="12" fill="#F59E0B" opacity="0.9"/>
  <circle cx="180" cy="55" r="8" fill="#FBBf24" opacity="0.7"/>

  <!-- Application 4 - Pink -->
  <circle cx="40" cy="140" r="12" fill="#EC4899" opacity="0.9"/>
  <circle cx="40" cy="140" r="8" fill="#F9A8D4" opacity="0.7"/>

  <!-- Application 5 - Cyan -->
  <circle cx="160" cy="140" r="12" fill="#06B6D4" opacity="0.9"/>
  <circle cx="160" cy="140" r="8" fill="#67E8F9" opacity="0.7"/>

  <!-- Face -->
  <!-- Eyes -->
  <ellipse cx="88" cy="105" rx="4" ry="6" fill="#1E293B"/>
  <ellipse cx="112" cy="105" rx="4" ry="6" fill="#1E293B"/>

  <!-- Eye highlights -->
  <circle cx="89" cy="103" r="1.5" fill="white"/>
  <circle cx="113" cy="103" r="1.5" fill="white"/>

  <!-- Happy smile -->
  <path d="M 85 120 Q 100 128 115 120" stroke="#1E293B" stroke-width="3" stroke-linecap="round" fill="none"/>

  <!-- Rosy cheeks -->
  <ellipse cx="75" cy="115" rx="6" ry="4" fill="#F472B6" opacity="0.4"/>
  <ellipse cx="125" cy="115" rx="6" ry="4" fill="#F472B6" opacity="0.4"/>
</svg>
